<svg xmlns="http://www.w3.org/2000/svg" width="40" height="40" viewBox="0 0 40 40" fill="none">
  <rect width="40" height="40" rx="8" fill="#FE7587"/>
  <path d="M20 10C14.486 10 10 14.486 10 20C10 22.121 10.765 24.017 11.979 25.631L10.601 30L15.362 28.661C16.86 29.503 18.612 30 20.5 30C26.014 30 30.5 25.514 30.5 20C30.5 14.486 25.514 10 20 10ZM24.375 24.125C24.125 24.75 23.375 25.25 22.625 25.375C22.125 25.5 21.375 25.625 19 24.625C16.125 23.375 14.25 20.375 14.125 20.25C14 20.125 12.875 18.625 12.875 17C12.875 15.375 13.625 14.625 13.875 14.25C14.125 13.875 14.5 13.75 14.75 13.75C15 13.75 15.25 13.75 15.375 13.75C15.5 13.75 15.75 13.75 15.875 14.125C16 14.5 16.375 16.125 16.5 16.25C16.625 16.375 16.625 16.625 16.5 16.75C16.375 16.875 16.25 17.125 16.125 17.25C16 17.375 15.75 17.625 15.625 17.75C15.5 17.875 15.25 18 15.375 18.375C15.5 18.75 16.125 19.875 17.125 20.75C18.375 21.875 19.375 22.25 19.75 22.375C20.125 22.5 20.375 22.5 20.5 22.25C20.625 22 21.125 21.5 21.25 21.25C21.375 21 21.625 21 21.875 21.125C22.125 21.25 23.625 22 23.875 22.25C24.125 22.5 24.25 22.625 24.125 22.875C24 23.125 24.125 23.875 24.375 24.125Z" fill="white"/>
  <circle cx="30" cy="10" r="4" fill="#E879F9"/>
</svg> 